<mxfile host="app.diagrams.net" modified="2024-03-01T21:08:32.181Z" agent="Mozilla/5.0 (Macintosh; Intel Mac OS X 10_15_7) AppleWebKit/537.36 (KHTML, like Gecko) Chrome/122.0.0.0 Safari/537.36" version="24.0.0" etag="QiTV_JWX6J1LH6127_ov" type="github">
  <diagram name="Page-1" id="moje5MP1D1rMO4aEr9rX">
    <mxGraphModel>
      <root>
        <mxCell id="0" />
        <mxCell id="1" parent="0" />
      </root>
    </mxGraphModel>
  </diagram>
</mxfile>
